<?xml version="1.0" standalone="no"?><!DOCTYPE svg PUBLIC "-//W3C//DTD SVG 1.1//EN" "http://www.w3.org/Graphics/SVG/1.1/DTD/svg11.dtd"><svg t="1657202218486" class="icon" viewBox="0 0 1024 1024" version="1.1" xmlns="http://www.w3.org/2000/svg" p-id="3848" xmlns:xlink="http://www.w3.org/1999/xlink" width="200" height="200"><defs><style type="text/css"></style></defs><path d="M193.02625 827.203231l0.12163-86.843568 0.608148-292.884191 0.364889-222.095736 441.637249 0.729778 214.554698 215.284476-0.608148 300.060339-0.12163 86.843569c-0.12163 37.218672-30.529041 67.504454-67.747714 67.504454l-254.205962-0.486519-344.698421-0.608148h-9.122223c38.434969-9.243853 19.217484-67.504454 19.217484-67.504454z" fill="#FFFFFF" p-id="3849"></path><path d="M635.393277 441.029101l214.919587 0.486518-214.554698-215.406105z" fill="#23A7B5" p-id="3850"></path><path d="M850.312864 441.515619l-215.041217-0.364889 214.554698 215.284476z" fill="#CFE9F8" p-id="3851"></path><path d="M257.611593 627.48735l227.082551 0.486519v-20.433781l-227.082551-0.364889zM257.611593 568.98349l227.204181 0.364889 0.121629-94.141347-227.082551-0.486519zM258.219741 278.531892l340.927901 0.729778v-9.000594L258.219741 269.652928zM257.854852 441.39399l341.049531 0.608148-0.12163-9.000594-340.927901-0.608148zM257.489963 687.207507l227.082552 0.364889v-20.312151l-227.082552-0.486519zM257.368334 746.806034l227.082551 0.364889 0.12163-20.312151-227.204181-0.364889zM257.246704 806.404561l227.204181 0.486519v-20.433781l-227.204181-0.364889zM533.224373 627.973869l227.204181 0.486518v-20.433781l-227.082551-0.364888zM533.224373 687.694025l227.082552 0.364889V667.746763l-227.082552-0.486518zM533.102744 747.292553l227.082551 0.364889V727.34529l-227.082551-0.364889zM532.981114 806.89108l227.082552 0.364889 0.121629-20.312151-227.204181-0.364889z" fill="#A4D5E3" p-id="3852"></path><path d="M332.292196 411.837986H311.736786L279.626559 344.211902l-0.364889 0.121629-0.12163 67.504455h-20.67704l0.24326-105.696164h20.67704l32.231856 67.504454 0.364889-0.121629 0.12163-67.382825h20.55541l-0.364889 105.696164zM404.661836 365.61872l-35.515857-0.12163v29.920893l41.718969 0.12163v16.541632l-62.396009-0.12163 0.12163-105.696163 62.274379 0.121629-0.121629 16.420003-41.59734-0.12163-0.121629 26.272004 35.515857 0.12163 0.121629 16.541632zM492.600071 373.889536h0.486519l11.554816-67.382825h20.068892l-20.55541 105.696163h-19.217485l-14.717187-64.706972h-0.486518l-14.838817 64.706972h-19.217485L415.486875 306.506711h20.068892l11.311557 67.504454h0.364889l15.446965-67.382824h14.838817l15.082076 67.261195zM581.024825 384.714574c0-4.135408-1.094667-7.419408-3.162371-9.730372-2.189334-2.432593-5.838223-4.743556-11.189928-7.054519-10.946668-3.892149-19.217484-8.149186-24.690818-13.014372-5.594964-4.865186-8.270816-11.676446-8.270816-20.433781 0-8.635705 3.162371-15.690224 9.608742-21.163559 6.324742-5.351704 14.595558-8.149186 24.447559-8.149186 10.095261 0 18.244447 3.040741 24.569189 9.122223 6.203112 6.081482 9.243853 13.74415 9.122224 22.988004l-0.12163 0.364889h-20.068892c0-4.865186-1.216296-8.757335-3.648889-11.798076-2.432593-3.040741-5.838223-4.500297-10.216891-4.500297-4.135408 0-7.297779 1.216296-9.608742 3.770519-2.310963 2.432593-3.40563 5.594964-3.40563 9.365483 0 3.52726 1.216296 6.324742 3.892149 8.635705 2.554223 2.189334 7.05452 4.743556 13.257631 7.541038 10.095261 3.40563 17.514669 7.784297 22.623115 12.892743 4.986816 5.230075 7.541038 12.284594 7.541038 21.163558 0 9.122224-3.162371 16.298373-9.243853 21.528448-6.081482 5.108445-14.230669 7.784297-24.32593 7.662668-10.095261 0-18.730966-2.919112-26.150374-8.878965-7.297779-5.959853-10.946668-14.352298-10.703409-25.298966l0.12163-0.486519h20.068892c0 6.568001 1.337926 11.189928 4.135408 14.109039 2.797482 2.919112 6.93289 4.257038 12.406224 4.257038 4.378667 0 7.541038-1.094667 9.730371-3.52726 2.189334-2.189334 3.284-5.351704 3.284001-9.365483z" fill="#23A7B5" p-id="3853"></path></svg>